<svg width="31" height="32" viewBox="0 0 31 32" fill="none" xmlns="http://www.w3.org/2000/svg">
<g clip-path="url(#clip0)">
<path d="M0.613418 16.9552L9.58405 25.9252C10.1314 26.4725 11.019 26.4725 11.5663 25.9252C12.1138 25.3778 12.1138 24.4905 11.5663 23.9431L4.98851 17.3657L28.9462 17.3657C29.7202 17.3657 30.3478 16.7381 30.3478 15.9641C30.3478 15.1903 29.7202 14.5626 28.9462 14.5626L4.98851 14.5626L11.5661 7.9852C12.1135 7.4378 12.1135 6.55044 11.5661 6.00305C11.2925 5.72957 10.9337 5.59256 10.575 5.59256C10.2163 5.59256 9.85754 5.72957 9.58383 6.00305L0.613418 14.9731C0.0659845 15.5205 0.0659845 16.4078 0.613418 16.9552Z" fill="#7E8389"/>
</g>
<defs>
<clipPath id="clip0">
<rect width="30.1449" height="30.1429" fill="white" transform="translate(30.3478 31.0356) rotate(-180)"/>
</clipPath>
</defs>
</svg>
