<?xml version="1.0" encoding="UTF-8" standalone="no"?>
<svg
   xmlns:dc="http://purl.org/dc/elements/1.1/"
   xmlns:cc="http://creativecommons.org/ns#"
   xmlns:rdf="http://www.w3.org/1999/02/22-rdf-syntax-ns#"
   xmlns:svg="http://www.w3.org/2000/svg"
   xmlns="http://www.w3.org/2000/svg"
   viewBox="0 0 2592 825.40002"
   height="825.40002"
   width="2592"
   xml:space="preserve"
   id="svg2"
   version="1.1"><metadata
     id="metadata8"><rdf:RDF><cc:Work
         rdf:about=""><dc:format>image/svg+xml</dc:format><dc:type
           rdf:resource="http://purl.org/dc/dcmitype/StillImage" /></cc:Work></rdf:RDF></metadata><defs
     id="defs6" /><g
     transform="matrix(1.3333333,0,0,-1.3333333,0,825.4)"
     id="g10"><g
       transform="scale(0.1)"
       id="g12"><path
         id="path14"
         style="fill:#fab40a;fill-opacity:1;fill-rule:nonzero;stroke:none"
         d="m 2246.2,5912 c -17.43,0 -34.98,-0.5 -52.66,-1.54 -380.62,-22.17 -740.49,-275.83 -939.17,-661.99 C 876.688,4514.33 950,3023.92 1825.25,2469.41 c 417.89,-264.76 798.63,-272.61 1098.08,-193.91 95.55,186.88 174.3,392.71 231.33,611.6 211.89,813.21 271.34,1930.72 -197.3,2628.25 C 2784.53,5772.57 2533.52,5912 2246.2,5912 Z M 1597.57,980.73 c -306.6,0 -614.886,99.01 -864.785,284.03 C 441.59,1480.39 80.6172,1918.3 14.6055,2779.88 c -107.3828,1402.16 411.8205,2310.03 433.9885,2348 38.804,66.41 124.086,88.83 190.48,50.07 66.399,-38.74 88.84,-123.95 50.145,-190.37 -7.801,-13.6 -496.961,-879.54 -396.875,-2186.39 45.879,-599 255.515,-1052.86 606.219,-1312.55 268.237,-198.67 619.137,-274.61 938.837,-203.29 329.28,73.53 644.55,318.36 894.06,671.53 -308.92,-28.79 -668.53,32.19 -1055.28,277.24 -1036.36,656.56 -1089.289,2325.82 -669.49,3141.79 243.53,473.37 692.11,784.74 1170.65,812.62 405.67,23.74 774.26,-165.12 1011.23,-517.85 165.53,-246.37 671.72,-1180.26 235.62,-2853.85 -34.55,-132.65 -76.69,-261.1 -125.49,-384.37 105.72,61.57 185.34,123.95 233.39,165.3 229.66,197.63 428.78,560.09 430.75,563.72 36.86,67.55 121.52,92.28 188.96,55.58 67.53,-36.83 92.42,-121.46 55.59,-188.96 -9.1,-16.69 -225.87,-411.07 -493.61,-641.52 -99.27,-85.37 -311.78,-246 -602.66,-346.74 -305.44,-537.83 -745.27,-921.92 -1213.04,-1026.34 -98.52,-21.98 -199.46,-32.77 -300.51,-32.77" /><path
         id="path16"
         style="fill:#fab40a;fill-opacity:1;fill-rule:nonzero;stroke:none"
         d="m 7913.66,1965.72 c -19.95,0 -40.04,0.91 -60.37,2.81 -196.49,18.36 -357.94,110.75 -466.92,267.17 -196.29,281.68 -193.95,710.93 -139.33,1078.77 -208.27,-406.6 -421.76,-769.93 -596.31,-985.92 -227.03,-280.82 -510.59,-411.16 -740.04,-339.57 -184.52,57.39 -301.31,232.62 -320.41,480.79 -4.36,56.72 -4.72,118.38 -1.84,183.39 -113.25,-186.87 -238.18,-349.36 -370.54,-452.32 -265.06,-206.11 -570.59,-280.28 -817.17,-198.54 -150.59,50.01 -349.87,181.31 -444.03,523.11 -171.38,622.06 364.93,1569.74 387.85,1609.77 38.18,66.76 123.25,89.88 189.98,51.71 66.77,-38.18 89.93,-123.25 51.81,-190.03 -140,-245.1 -477.79,-973.93 -361.11,-1397.47 49.37,-179.17 137.93,-291.1 263.24,-332.72 155.71,-51.69 369.75,7.39 558.42,154.05 288.91,224.74 609.73,921.74 816.29,1552.27 21.08,68.25 35.34,111.32 38.06,119.51 24.14,72.4 102.15,111.82 174.73,88.56 72.68,-23.35 113,-100.83 90.47,-173.75 -7.19,-23.19 -17.41,-55.72 -30.51,-95.84 -81.2,-261.67 -299.34,-1011.68 -267.92,-1420.3 5.8,-75.48 29.81,-206.51 125.4,-236.2 95.34,-29.79 268.55,35.77 440.68,248.67 340.63,421.49 863.51,1493.6 1152.6,2245.22 135.49,352.29 278.21,742.44 372.62,1000.61 36.52,99.76 66.8,182.55 88.27,240.31 37.56,101.01 80.09,215.64 208.91,173.64 44.41,-14.44 119.94,-71.36 87.96,-183.39 -41.78,-146.17 -125.25,-391.35 -221.9,-675.25 -167.84,-492.99 -376.73,-1106.54 -514.22,-1622.18 -154.37,-578.83 -151.9,-1060.22 6.58,-1287.68 62.36,-89.49 148.79,-138.27 264.27,-149.01 439.08,-40.58 846.48,736.8 1020.49,1068.96 35.65,68.17 119.86,94.37 187.98,58.76 68.14,-35.7 94.44,-119.87 58.74,-188.01 -209.8,-400.53 -639.05,-1219.81 -1232.73,-1219.9" /><path
         id="path18"
         style="fill:#fab40a;fill-opacity:1;fill-rule:nonzero;stroke:none"
         d="m 8142.13,4896.07 c -43.52,0 -91.06,2.09 -142.2,7.18 -226.21,22.65 -505.78,30.83 -508.56,30.93 -76.9,2.19 -137.45,66.3 -135.24,143.17 2.19,76.87 65.94,136.01 143.17,135.26 11.81,-0.34 292.1,-8.55 528.35,-32.19 198.11,-19.7 326.39,18.5 327.7,18.91 73.11,22.37 151.18,-18.29 174.12,-91.34 22.92,-73.03 -16.91,-150.72 -89.79,-174.13 -14.47,-4.67 -123.71,-37.79 -297.55,-37.79" /><path
         id="path20"
         style="fill:#fab40a;fill-opacity:1;fill-rule:nonzero;stroke:none"
         d="m 10025.1,3945.92 c -60.54,0 -126.23,-12.53 -196.66,-37.61 -304.85,-108.44 -592.13,-435.34 -714.88,-813.38 -89.69,-276.33 -75.64,-530.35 38.56,-696.93 93.38,-136.1 226.51,-160.76 321.51,-158.04 260.21,8.39 549.77,217.85 737.77,533.62 119.7,201.07 237.6,467.37 335,711.4 -48.7,10.56 -90.1,46.97 -104.6,98.2 v 0 c -0.6,2.31 -68.5,231.58 -248.6,323.93 -50.4,25.87 -106.5,38.81 -168.1,38.81 z m 316.1,-2181.91 c -18.7,-11.83 -37.5,-23.57 -56.2,-35.31 -384.41,-241.65 -781.93,-491.5 -935.75,-728.52 -140.78,-216.84 -199.94,-451.2 -147.24,-583.078 16.01,-40.032 50.4,-96.391 163.99,-123.543 373.58,-89.36 672.7,285.351 888.1,1113.881 29.5,113.3 58.6,233.07 87.1,356.57 z M 9485.13,0 c -59.49,0 -120.76,7.53125 -183.92,22.6211 -220.72,52.7773 -316.43,187.4299 -357.86,291.1169 -104.46,261.364 20.49,604.332 172.23,838.132 187.26,288.49 611.21,554.93 1021.22,812.63 99.6,62.65 196.8,123.77 288.9,183.89 48.1,229.17 93.6,461.88 134.7,683.27 -35.8,-70.69 -72.6,-138.24 -109.6,-200.53 -239,-401.5 -610.01,-658.07 -968.24,-669.54 -232.78,-7.48 -431.7,91.58 -560.16,278.91 -163.51,238.43 -190.39,581.23 -73.76,940.43 150.38,463.21 498.32,851.74 886.4,989.82 218.46,77.8 416.26,71.92 587.96,-17.14 178.7,-92.71 283.2,-255.7 337.6,-369.32 75,205.38 122.2,351.89 123.3,355.45 22.1,69.13 93.6,109.67 164.2,93.23 70.8,-16.48 116.9,-84.46 106.2,-156.25 -1.7,-11.63 -125.3,-831.98 -296.3,-1692.99 458.7,366.73 1007.7,1167.26 1060.8,1698.59 7.7,76.57 76.3,132.65 152.5,124.7 76.5,-7.64 132.3,-75.9 124.7,-152.45 -62,-619.23 -667.7,-1495.75 -1172.6,-1895.13 -75.5,-59.79 -159.9,-120 -249,-180.12 -48.2,-224.1 -98.9,-442.67 -150.7,-641.97 C 10292.6,448.66 9943.75,0.0507813 9485.13,0" /><path
         id="path22"
         style="fill:#fab40a;fill-opacity:1;fill-rule:nonzero;stroke:none"
         d="m 12697.7,1969.44 c -55.9,0 -109.6,11.15 -160.3,33.73 -96.2,42.84 -259.3,166.61 -271.1,513.75 -14.5,430.75 245.3,1145.17 335.1,1377.79 -34.1,-5.17 -73,-10.69 -115.9,-15.32 -219.9,-23.83 -529.3,-8.57 -542.4,-7.86 -76.8,3.87 -135.9,69.29 -132.1,146.11 3.9,76.81 68.4,135.99 146.2,132.07 2.9,-0.13 300.5,-14.73 498.4,6.6 53.3,5.78 99.8,13.1 140.8,19.54 119.3,18.83 222.3,35.02 291.5,-52.27 70.3,-88.77 25.1,-199.83 0.8,-259.47 -100,-245.43 -356.6,-964.18 -344,-1337.76 4.8,-140.82 44.5,-241.28 106.1,-268.76 63.1,-28.15 170.2,11.53 279.6,103.29 326.7,274.33 586.8,880.39 589.4,886.49 30.1,70.77 112,103.75 182.7,73.65 70.8,-30.11 103.8,-111.89 73.7,-182.66 -11.7,-27.39 -289.5,-674.03 -666.7,-990.79 -140.2,-117.7 -281.7,-178.13 -411.8,-178.13" /><path
         id="path24"
         style="fill:#fab40a;fill-opacity:1;fill-rule:nonzero;stroke:none"
         d="m 14587.5,3933.36 c -24.9,-6.84 -48.1,-17.02 -68.7,-30.46 -122.8,-80.18 -188.5,-299.72 -159.7,-533.89 27.9,-227.21 152.5,-502.95 418.7,-595.34 17.2,-5.99 34.3,-11.15 51.2,-15.55 153.4,270.88 245.1,600.17 204,843.33 -34.1,201.39 -156.1,282.58 -225.7,313.07 -70.6,30.93 -148.7,37.34 -215.7,19.95 -1.3,-0.38 -2.7,-0.77 -4.1,-1.11 z m -496.2,-258.3 c -268.1,-264.41 -376.8,-662.96 -376.8,-933.22 0,-190.64 74.3,-348.28 204,-432.47 129.9,-84.32 297.9,-87.81 472.9,-9.88 94.3,41.98 187.2,119.69 272.1,219.33 -311.8,119.11 -533.4,429.44 -580.9,816.25 -14.6,119.01 -11,234.28 8.7,339.99 z m 56.6,-1709.61 c -137.4,0 -268.1,36.95 -381.1,110.3 -210.3,136.55 -330.9,379.33 -330.9,666.09 0,288.7 92.2,611.57 246.7,863.71 198.8,324.37 489.2,531.33 840.2,598.81 126.4,32.51 267.7,21.58 396.1,-34.63 206.2,-90.22 347.9,-280.41 388.7,-521.81 44.7,-263.68 -27.9,-592.8 -167.8,-887.81 274.7,76.03 446.9,325.43 456.8,339.98 43.1,63.52 129.4,80.52 193.2,37.68 63.7,-42.8 80.8,-128.9 38.2,-192.72 -126.9,-190.1 -441.8,-484.94 -850,-484.94 -4.1,0 -8.3,0.05 -12.5,0.1 -133.6,-189.29 -293.7,-340.8 -460.7,-415.15 -119.4,-53.14 -240.5,-79.57 -356.9,-79.61" /><g
         transform="scale(1.19264)"
         id="g26"><path
           id="path28"
           style="fill:#fab40a;fill-opacity:1;fill-rule:nonzero;stroke:none"
           d="m 14500.4,3309.46 c -44.5,-17.43 -154.6,-116.84 -205.7,-316.6 -43.2,-168.65 -68.2,-390.04 -46.4,-590.26 151.3,268.15 251.8,586.56 260.5,819.49 1.9,47.91 -4,74.43 -8.4,87.37 z m 981.1,-12.96 c -23.2,0 -47.8,-4.45 -69.4,-10.97 -115.3,-34.61 -315.9,-272.29 -257,-664.84 14.8,-97.74 59,-179.28 125.3,-236.3 117.2,176.08 211.6,373.87 263.1,547.54 58.9,198.29 41.7,306.97 6,342.54 -16,15.96 -41,22.03 -68,22.03 z M 13638.2,1649.2 c -65.8,0 -130.5,11.86 -192.9,35.81 -189.9,73.06 -329.8,254.19 -374.4,484.64 -83.4,431.65 295.5,1221.82 339,1310.51 28.4,57.92 98.3,81.83 156.2,53.45 57.9,-28.38 81.9,-98.34 53.5,-156.26 -108.5,-221.58 -377.5,-862.54 -319.3,-1163.38 29.1,-150.8 114.7,-267.04 229,-310.94 114.4,-44.11 249.7,-13.77 381,85.18 53.5,40.29 105.3,90.48 154.4,147.84 -14.2,44.81 -26,92.56 -35.1,143.16 -41.2,227.13 -26.7,515.56 38.9,771.52 77.6,303.76 286.2,520.53 475,492.8 49.3,-7.15 209.3,-52.09 198.8,-330.23 -12,-319.56 -171.6,-776.38 -409.6,-1111.36 52.6,-98.19 130.8,-171.09 241.9,-199.6 183.2,-47.22 388.2,88.73 565.2,295.24 -114.2,93.26 -191.6,228.66 -215.7,388.4 -42.6,283.96 24.8,490.89 88.8,614.47 80.4,155.04 204.5,270.48 332,308.77 146.6,44 281.2,18.69 369.5,-69.33 114.5,-114.09 132.2,-307.35 53,-574.42 -48.2,-162.5 -142,-370.95 -267.7,-568.7 171.9,-13.19 400.9,71.99 586.2,350.86 35.8,53.66 108.3,68.28 161.9,32.61 53.8,-35.72 68.4,-108.21 32.7,-161.93 -272.8,-410.28 -638.6,-496.69 -890.3,-440.92 -13.6,3.04 -27,6.46 -40.1,10.3 -229,-283.35 -523.4,-491.14 -833.5,-411.62 -142.6,36.61 -257.7,116.1 -342.2,234.82 -39.8,-40.61 -81.1,-77.29 -123.5,-109.25 -133.9,-100.86 -275.6,-152.44 -412.7,-152.44" /></g></g></g></svg>